<svg xmlns="http://www.w3.org/2000/svg" xmlns:xlink="http://www.w3.org/1999/xlink" width="268" height="65"><defs><path id="a" d="M170.897 404.069a2.892 2.892 0 0 0 1.511 1.452l14.829 6.179 11.831-5.516a2.935 2.935 0 0 0 1.683-2.928l-.333-8-.146-3.458v-.088c0-.067-.004-.132-.009-.201a2.933 2.933 0 0 0-4.163-2.405L172.303 400.2a2.911 2.911 0 0 0-1.406 3.869z"/><path id="b" d="M164.485 417.555v.027l.022.518-.022-.508a.152.152 0 0 1 0-.037z"/><path id="c" d="M172.303 400.2l-6.602 3.079z"/><path id="d" d="M164.599 418.946c.008.033.016.063.027.095-.011-.039-.024-.08-.032-.12 0 .01.004.015.005.025z"/><path id="e" d="M164.507 418.1c0 .01.004.022.005.032l.01.281-.01-.288-.005-.025z"/><path id="f" d="M207.728 420.279c-.097-.057-.188-.121-.294-.166l-20.197-8.413-19.105 8.909a2.54 2.54 0 0 1-3.448-1.393c.236.653.736 1.19 1.401 1.469l20.185 8.409.004.002 19.12-8.916a2.52 2.52 0 0 1 2.334.099z"/><path id="g" d="M168.133 420.609l19.104-8.91-14.83-6.178a2.911 2.911 0 0 1-.105-5.321l-6.601 3.079a2.93 2.93 0 0 0-1.691 2.767c0 .046.004.095.007.145l.468 11.365a.116.116 0 0 0 0 .037l.022.508c0 .009.004.015.005.025l.01.288c.003.055.007.108.014.16a2.47 2.47 0 0 0 .058.348c.008.04.02.08.032.119.018.059.035.118.058.175a2.541 2.541 0 0 0 3.449 1.393z"/><path id="h" d="M202.618 436.726a2.897 2.897 0 0 0-1.384-1.396c-.01-.003-.018-.01-.026-.012-.07-.032-.14-.06-.21-.088l-.024-.01-14.7-6.124-12.614 5.883a1.627 1.627 0 0 0-.697.62 1.62 1.62 0 0 0-.232.902v.003h-.001a1.61 1.61 0 0 0 2.29 1.393l6.934-3.234c.852-.396 1.892-.098 2.343.725.26.47.28.999.114 1.457a1.758 1.758 0 0 1-.914.998l-9.534 4.446a1.617 1.617 0 0 0-.931 1.525l.002.002a1.612 1.612 0 0 0 2.291 1.394l14.117-6.583a1.765 1.765 0 1 1 1.492 3.2l-12.295 5.734a1.597 1.597 0 0 0-.695.624 1.588 1.588 0 0 0-.235.903l-.002.004a1.613 1.613 0 0 0 2.294 1.39l28.064-13.086-6.857 3.197a2.91 2.91 0 0 0 1.41-3.867z"/><path id="i" d="M209.519 434.756l-.006-.135-.002-.026-.48-11.585a2.21 2.21 0 0 0-.01-.178l-.017-.456a2.481 2.481 0 0 0-.123-.683l-.026-.079a2.45 2.45 0 0 0-.276-.547 1.987 1.987 0 0 0-.11-.15c-.034-.045-.07-.085-.107-.129a2.55 2.55 0 0 0-.618-.5l-.015-.009a2.52 2.52 0 0 0-2.335-.099l-19.12 8.916 14.7 6.125.025.01c.07.027.14.054.209.087.008.002.018.008.026.011a2.911 2.911 0 0 1-.026 5.264l6.857-3.197.09-.045.008-.004a2.933 2.933 0 0 0 1.356-2.59z"/><path id="j" d="M173.67 449.88a1.61 1.61 0 1 0 1.361 2.92 1.612 1.612 0 0 0-1.362-2.92z"/><path id="k" d="M228.463 416.95l-4.126-1.113c-.826-.21-1.303-.654-1.303-1.286 0-1.767 4.22-1.575 7.776-.768 1.193.27 1.89-.27 1.89-1.517v-.46c0-1.037-.459-1.728-1.45-1.978-6.436-1.67-13.094-.518-13.094 4.876 0 2.592 1.541 4.473 5.136 5.433l3.85 1.036c1.23.345 1.798.806 1.798 1.631 0 2.131-4.383 1.863-8.656 1-1.192-.232-1.889.344-1.889 1.573v.537c0 1.037.458 1.71 1.43 1.977 6.547 1.805 13.974.71 13.974-5.22 0-2.918-1.742-4.76-5.336-5.72z"/><path id="l" d="M253.366 409.464h-1.724c-1.082 0-1.687.634-1.687 1.766v8.638c0 3.378-1.174 4.32-3.924 4.32-2.751 0-3.925-.942-3.925-4.32v-8.638c0-1.132-.605-1.766-1.687-1.766h-1.724c-1.082 0-1.687.634-1.687 1.766v8.561c0 6.892 3.319 8.888 9.023 8.888 5.703 0 9.022-1.996 9.022-8.888v-8.56c0-1.133-.605-1.767-1.687-1.767z"/><path id="m" d="M266.512 409.119c-.807 0-1.67.038-2.55.115v-6.008c0-1.133-.604-1.767-1.686-1.767h-1.724c-1.082 0-1.687.634-1.687 1.767v19.426c0 4.3 2.292 6.027 7.647 6.027 6.437 0 10.25-2.495 10.25-9.79 0-7.313-3.813-9.77-10.25-9.77zm.349 15.068c-2.604 0-2.898-.787-2.898-2.342v-8.023c1.082-.154 2.036-.231 2.86-.231 3.412 0 4.843 1.267 4.843 5.298 0 3.974-1.431 5.298-4.805 5.298z"/><path id="n" d="M284.133 401.46h-1.815c-1.083 0-1.688.633-1.688 1.766v23.341c0 1.132.605 1.766 1.688 1.766h1.815c1.082 0 1.687-.634 1.687-1.766v-23.34c0-1.134-.605-1.768-1.687-1.768z"/><path id="o" d="M294.017 409.464H292.2c-1.082 0-1.687.634-1.687 1.766v15.338c0 1.131.605 1.765 1.687 1.765h1.816c1.082 0 1.687-.634 1.687-1.765V411.23c0-1.132-.605-1.766-1.687-1.766z"/><path id="p" d="M293.118 401.095c-1.89 0-2.842 1.132-2.842 2.976 0 1.841.953 2.936 2.842 2.936 1.907 0 2.843-1.095 2.843-2.936 0-1.844-.936-2.976-2.843-2.976z"/><path id="q" d="M320.55 409.118c-3.245 0-5.171.98-6.233 2.707-1.082-1.728-2.991-2.707-6.254-2.707-4.934 0-8.107 2.323-8.107 8.734v8.715c0 1.132.606 1.766 1.688 1.766h1.632c1.082 0 1.687-.634 1.687-1.766v-8.983c0-2.745 1.119-3.974 3.539-3.974s3.32 1.23 3.32 3.974v8.983c0 1.132.605 1.766 1.687 1.766h1.614c1.082 0 1.688-.634 1.688-1.766v-8.983c0-2.745.898-3.974 3.318-3.974 2.422 0 3.54 1.23 3.54 3.974v8.983c0 1.132.605 1.766 1.687 1.766h1.632c1.083 0 1.688-.634 1.688-1.766v-8.715c0-6.41-3.174-8.734-8.125-8.734z"/><path id="r" d="M335.53 401.095c-1.89 0-2.843 1.132-2.843 2.976 0 1.841.953 2.936 2.842 2.936 1.908 0 2.844-1.095 2.844-2.936 0-1.844-.936-2.976-2.844-2.976z"/><path id="s" d="M336.429 409.464h-1.815c-1.082 0-1.688.634-1.688 1.766v15.338c0 1.131.606 1.765 1.688 1.765h1.815c1.082 0 1.687-.634 1.687-1.765V411.23c0-1.132-.605-1.766-1.687-1.766z"/><path id="t" d="M351.392 409.118c-5.704 0-9.022 1.996-9.022 8.888v8.561c0 1.132.605 1.766 1.686 1.766h1.724c1.082 0 1.687-.634 1.687-1.766v-8.638c0-3.378 1.174-4.319 3.925-4.319 2.75 0 3.925.941 3.925 4.32v8.637c0 1.132.604 1.766 1.687 1.766h1.723c1.082 0 1.687-.634 1.687-1.766v-8.56c0-6.893-3.32-8.889-9.022-8.889z"/><path id="u" d="M372.094 409.118c-1.614 0-3.56.23-5.557.672-1.191.25-1.76.94-1.76 1.996v.71c0 1.23.696 1.787 1.852 1.556 1.705-.365 3.41-.596 4.73-.596 2.678 0 4.274.922 4.274 3.034v.307h-4.75c-4.456 0-7.207 1.247-7.207 5.778 0 4.51 2.732 5.758 7.207 5.758h4.163c3.942 0 5.686-1.516 5.686-5.508v-6.335c0-5.164-3.668-7.372-8.638-7.372zm3.539 13.437c0 1.286-.256 1.958-1.834 1.958h-2.678c-2.2 0-2.658-.537-2.658-1.938 0-1.42.458-1.958 2.677-1.958h4.493z"/><path id="v" d="M394.72 409.464h-4.987v-2.61c0-1.133-.605-1.767-1.687-1.767h-1.815c-1.082 0-1.688.634-1.688 1.767v14.511c0 6.718 4.658 8.274 10.49 6.815.917-.193 1.358-.903 1.358-1.882v-.959c0-.94-.441-1.4-1.578-1.4-.641 0-1.265.21-2.238.21-2.016 0-2.842-.826-2.842-2.784v-7.524h4.988c1.082 0 1.687-.634 1.687-1.767v-.844c0-1.132-.605-1.766-1.687-1.766z"/><path id="w" d="M407.96 409.119c-5.997 0-9.28 3.55-9.28 9.79 0 6.218 3.283 9.77 9.28 9.77s9.28-3.552 9.28-9.77c0-6.24-3.283-9.79-9.28-9.79zm0 15.068c-2.751 0-4.107-1.593-4.107-5.278 0-3.725 1.356-5.298 4.108-5.298 2.75 0 4.107 1.573 4.107 5.298 0 3.685-1.357 5.278-4.107 5.278z"/><path id="x" d="M429.928 409.291c-7.758.135-9.262 1.324-9.262 5.721v11.555c0 1.132.606 1.766 1.688 1.766h1.815c1.082 0 1.688-.634 1.688-1.766V415.78c0-1.439.165-1.785 4.015-1.842 1.21-.02 1.853-.654 1.853-1.786v-1.113c0-1.152-.623-1.767-1.797-1.747z"/></defs><use fill="#e72e48" xlink:href="#a" transform="translate(-164 -388)"/><use fill="#e72e48" xlink:href="#b" transform="translate(-164 -388)"/><use fill="#00bd6f" xlink:href="#c" transform="translate(-164 -388)"/><use fill="#00bd6f" xlink:href="#c" transform="translate(-164 -388)"/><use fill="#00bd6f" xlink:href="#d" transform="translate(-164 -388)"/><use fill="#00bd6f" xlink:href="#e" transform="translate(-164 -388)"/><use fill="#3e3f42" xlink:href="#f" transform="translate(-164 -388)"/><use fill="#29292b" xlink:href="#g" transform="translate(-164 -388)"/><use fill="#1261ff" xlink:href="#h" transform="translate(-164 -388)"/><use fill="#0a5ce0" xlink:href="#i" transform="translate(-164 -388)"/><use fill="#1261ff" xlink:href="#j" transform="translate(-164 -388)"/><use fill="#1261ff" xlink:href="#k" transform="translate(-164 -388)"/><use fill="#1261ff" xlink:href="#l" transform="translate(-164 -388)"/><use fill="#1261ff" xlink:href="#m" transform="translate(-164 -388)"/><use fill="#1261ff" xlink:href="#n" transform="translate(-164 -388)"/><use fill="#1261ff" xlink:href="#o" transform="translate(-164 -388)"/><use fill="#1261ff" xlink:href="#p" transform="translate(-164 -388)"/><use fill="#1261ff" xlink:href="#q" transform="translate(-164 -388)"/><use fill="#1261ff" xlink:href="#r" transform="translate(-164 -388)"/><use fill="#1261ff" xlink:href="#s" transform="translate(-164 -388)"/><use fill="#1261ff" xlink:href="#t" transform="translate(-164 -388)"/><use fill="#1261ff" xlink:href="#u" transform="translate(-164 -388)"/><use fill="#1261ff" xlink:href="#v" transform="translate(-164 -388)"/><use fill="#1261ff" xlink:href="#w" transform="translate(-164 -388)"/><use fill="#1261ff" xlink:href="#x" transform="translate(-164 -388)"/></svg>